<svg width="38" height="16" viewBox="0 0 38 16" fill="none" xmlns="http://www.w3.org/2000/svg">
<g id="Frame 2117075196">
<path id="Vector" d="M5.24414 5.26538H6.38184L5.81299 3.81154L5.24414 5.26538Z" fill="#026ECE"/>
<path id="Vector_2" d="M19.3619 4.01922C19.2585 3.9673 19.1034 3.9673 18.9482 3.9673H17.9139V4.79807H18.9482C19.1034 4.79807 19.2585 4.79807 19.3619 4.74615C19.4654 4.69422 19.5171 4.53845 19.5171 4.38268C19.5688 4.17499 19.4654 4.07115 19.3619 4.01922Z" fill="#0571C1"/>
<path id="Vector_3" d="M30.4288 2.46154V3.08462L30.1185 2.46154H27.688V3.08462L27.3777 2.46154H24.068C23.4991 2.46154 23.0337 2.56539 22.62 2.77308V2.46154H20.2929V2.77308C20.0343 2.56539 19.724 2.46154 19.3103 2.46154H10.9844L10.4156 3.75962L9.84672 2.46154H7.20932V3.08462L6.89904 2.46154H4.67535L3.64108 4.90192L2.45166 7.60192H5.08906L5.39934 6.77115H6.12333L6.43362 7.60192H9.43301V6.97885L9.69158 7.60192H11.1913L11.4498 6.97885V7.60192H18.6381V6.25192H18.7415C18.8449 6.25192 18.8449 6.25192 18.8449 6.40769V7.55H22.5683V7.23846C22.8786 7.39423 23.344 7.55 23.9646 7.55H25.516L25.8263 6.71923H26.5502L26.8605 7.55H29.8599V6.77115L30.3254 7.55H32.7559V2.46154H30.4288ZM12.9495 6.82308H12.0704V3.96731L10.8293 6.82308H10.0536L8.81245 3.96731V6.82308H7.05418L6.69218 6.04423H4.93392L4.62364 6.875H3.64108L5.19249 3.18846H6.48533L7.93331 6.66731V3.18846H9.32958L10.4673 5.68077L11.5016 3.18846H12.9495V6.82308ZM16.4661 3.96731H14.4492V4.64231H16.4144V5.36923H14.4492V6.09616H16.4661V6.875H13.5701V3.18846H16.4661V3.96731ZM20.3446 5.47308C20.448 5.68077 20.4997 5.83654 20.4997 6.14808V6.875H19.6206V6.40769C19.6206 6.2 19.6206 5.88846 19.4655 5.68077C19.3103 5.525 19.1552 5.525 18.8449 5.525H17.9141V6.875H17.0349V3.18846H19C19.4655 3.18846 19.7758 3.18846 20.0343 3.34423C20.2929 3.5 20.448 3.75962 20.448 4.175C20.448 4.74616 20.086 5.05769 19.8275 5.16154C20.086 5.21346 20.2412 5.36923 20.3446 5.47308ZM21.896 6.82308H21.0169V3.13654H21.896V6.82308ZM32.0836 6.82308H30.8425L29.1876 4.07116V6.82308H27.4294L27.1191 6.04423H25.3091L24.9988 6.875H24.0163C23.6026 6.875 23.0854 6.77115 22.7751 6.45962C22.4649 6.14808 22.3097 5.73269 22.3097 5.05769C22.3097 4.53846 22.4132 4.01923 22.7751 3.60385C23.0337 3.29231 23.4991 3.18846 24.068 3.18846H24.8954V3.96731H24.068C23.7577 3.96731 23.6026 4.01923 23.3957 4.175C23.2406 4.33077 23.1371 4.64231 23.1371 5.00577C23.1371 5.42116 23.1889 5.68077 23.3957 5.88846C23.5509 6.04423 23.7577 6.09616 24.0163 6.09616H24.3783L25.5677 3.24039H26.8605L28.3085 6.71923V3.24039H29.6014L31.1011 5.78462V3.24039H31.9802V6.82308H32.0836Z" fill="#0571C1"/>
<path id="Vector_4" d="M25.6193 5.26538H26.8087L26.2399 3.81154L25.6193 5.26538ZM16.828 12.7423V9.78269L15.4834 11.2365L16.828 12.7423Z" fill="#0571C1"/>
<path id="Vector_5" d="M11.2947 10.1461V10.8211H13.2081V11.5481H11.2947V12.3269H13.4149L14.3975 11.2365L13.4667 10.1461H11.2947Z" fill="#026ECE"/>
<path id="Vector_6" d="M18.7931 10.1461H17.7072V11.0808H18.8449C19.1551 11.0808 19.362 10.925 19.362 10.6135C19.3103 10.3019 19.1034 10.1461 18.7931 10.1461Z" fill="#0571C1"/>
<path id="Vector_7" d="M34.7726 11.0288V8.69231H32.6007C32.1352 8.69231 31.7732 8.79615 31.5147 9.00385V8.69231H29.1358C28.7738 8.69231 28.3084 8.79615 28.1016 9.00385V8.69231H23.9128V9.00385C23.6025 8.74423 23.0336 8.69231 22.7751 8.69231H19.9825V9.00385C19.7239 8.74423 19.1034 8.69231 18.7931 8.69231H15.6903L14.9663 9.47115L14.294 8.69231H9.63977V13.7808H14.1906L14.9146 13.0019L15.5868 13.7808H18.3794V12.5865H18.7414C19.1034 12.5865 19.5688 12.5865 19.9308 12.4308V13.8327H22.2579V12.4827H22.3613C22.5165 12.4827 22.5165 12.4827 22.5165 12.6385V13.8327H29.5495C30.015 13.8327 30.4804 13.7288 30.739 13.5212V13.8327H32.9627C33.4281 13.8327 33.8935 13.7808 34.2038 13.5731C34.7209 13.2615 35.0312 12.6904 35.0312 12.0154C35.0312 11.6519 34.9278 11.2885 34.7726 11.0288ZM18.7414 11.8596H17.7071V13.1058H16.0523L15.018 11.9115L13.932 13.1058H10.5189V9.41923H13.9837L15.018 10.6135L16.104 9.41923H18.8448C19.5171 9.41923 20.2928 9.62692 20.2928 10.6135C20.2411 11.6519 19.5171 11.8596 18.7414 11.8596ZM23.9128 11.6519C24.0162 11.8077 24.0679 12.0154 24.0679 12.3269V13.0538H23.1888V12.5865C23.1888 12.3788 23.1888 12.0154 23.0336 11.8596C22.9302 11.7038 22.7233 11.7038 22.4131 11.7038H21.4822V13.0538H20.6031V9.36731H22.5682C22.9819 9.36731 23.3439 9.36731 23.6025 9.52308C23.861 9.67885 24.0679 9.93846 24.0679 10.3538C24.0679 10.925 23.7059 11.2365 23.4473 11.3404C23.7059 11.4442 23.861 11.5481 23.9128 11.6519ZM27.481 10.1462H25.4642V10.8212H27.4293V11.5481H25.4642V12.275H27.481V13.0538H24.585V9.36731H27.481V10.1462ZM29.653 13.0538H27.9981V12.275H29.653C29.8081 12.275 29.9115 12.275 30.015 12.1712C30.0667 12.1192 30.1184 12.0154 30.1184 11.9115C30.1184 11.8077 30.0667 11.7038 30.015 11.6519C29.9633 11.6 29.8598 11.5481 29.7047 11.5481C28.8773 11.4962 27.8947 11.5481 27.8947 10.4058C27.8947 9.88654 28.205 9.31538 29.1358 9.31538H30.8424V10.1981H29.2393C29.0841 10.1981 28.9807 10.1981 28.8773 10.25C28.7738 10.3019 28.7738 10.4058 28.7738 10.5096C28.7738 10.6654 28.8773 10.7173 28.9807 10.7692C29.0841 10.8212 29.1876 10.8212 29.291 10.8212H29.7564C30.2218 10.8212 30.5321 10.925 30.739 11.1327C30.8941 11.2885 30.9975 11.5481 30.9975 11.9115C30.9975 12.6904 30.5321 13.0538 29.653 13.0538ZM34.1004 12.6904C33.8935 12.8981 33.5315 13.0538 33.0144 13.0538H31.3595V12.275H33.0144C33.1695 12.275 33.2729 12.275 33.3764 12.1712C33.4281 12.1192 33.4798 12.0154 33.4798 11.9115C33.4798 11.8077 33.4281 11.7038 33.3764 11.6519C33.3247 11.6 33.2212 11.5481 33.0661 11.5481C32.2387 11.4962 31.2561 11.5481 31.2561 10.4058C31.2561 9.88654 31.5664 9.31538 32.4972 9.31538H34.2038V10.1981H32.6524C32.4972 10.1981 32.3938 10.1981 32.2904 10.25C32.187 10.3019 32.1869 10.4058 32.1869 10.5096C32.1869 10.6654 32.2387 10.7173 32.3938 10.7692C32.4972 10.8212 32.6007 10.8212 32.7041 10.8212H33.1695C33.6349 10.8212 33.9452 10.925 34.1521 11.1327C34.2038 11.1327 34.2038 11.1846 34.2038 11.1846C34.3589 11.3923 34.4106 11.6519 34.4106 11.9115C34.4106 12.2231 34.3072 12.4827 34.1004 12.6904Z" fill="#0571C1"/>
<path id="Vector_8" d="M22.9819 10.25C22.8785 10.1981 22.7234 10.1981 22.5682 10.1981H21.5339V11.0288H22.5682C22.7234 11.0288 22.8785 11.0288 22.9819 10.9769C23.0853 10.925 23.1371 10.7692 23.1371 10.6135C23.1888 10.4058 23.0853 10.3019 22.9819 10.25Z" fill="#0571C1"/>
<g id="Group">
<path id="Vector_9" d="M19.3619 4.01923C19.2585 3.96731 19.1034 3.96731 18.9482 3.96731H17.9139V4.79808H18.9482C19.1034 4.79808 19.2585 4.79808 19.3619 4.74615C19.4654 4.69423 19.5171 4.53846 19.5171 4.38269C19.5688 4.175 19.4654 4.07115 19.3619 4.01923ZM25.6193 5.26538H26.8087L26.2399 3.81154L25.6193 5.26538ZM16.828 12.7423V9.78269L15.4834 11.2365L16.828 12.7423ZM18.7931 10.1462H17.7071V11.0808H18.8448C19.1551 11.0808 19.3619 10.925 19.3619 10.6135C19.3102 10.3019 19.1034 10.1462 18.7931 10.1462ZM22.9819 10.25C22.8785 10.1981 22.7233 10.1981 22.5682 10.1981H21.5339V11.0288H22.5682C22.7233 11.0288 22.8785 11.0288 22.9819 10.9769C23.0853 10.925 23.137 10.7692 23.137 10.6135C23.1887 10.4058 23.0853 10.3019 22.9819 10.25Z" fill="#026ECE"/>
</g>
<path id="Vector_10" d="M18.4311 12.95L17.7071 12.1712V13.0538H16.0006L14.9663 11.8596L13.8286 13.0538H10.4155V9.41923H13.8803L14.9663 10.6135L15.4834 9.99038L14.1906 8.69231H9.63977V13.7808H14.1906L14.9663 13.0019L15.6386 13.7808H18.4311V12.95Z" fill="#026ECE"/>
<g id="Group_2">
<path id="Vector_11" d="M13.053 7.55L12.3807 6.82308H12.0704V6.51154L11.2947 5.73269L10.7776 6.82308H10.0536L8.81245 3.96731V6.82308H7.05418L6.69218 6.04423H4.93392L4.57192 6.82308H3.64108L5.19249 3.18846H6.48533L7.93331 6.66731V3.18846H8.70902L7.98503 2.46154H7.20932V3.08462L6.95075 2.46154H4.67535L3.64108 4.90192L2.45166 7.55H5.14077L5.45106 6.77115H6.17505L6.53704 7.55H9.43301V6.92692L9.69158 7.55H11.1913L11.4498 6.92692V7.55H13.053Z" fill="#026ECE"/>
<path id="Vector_12" d="M10.6741 5.16154L9.84668 4.33077L10.4672 5.68077L10.6741 5.16154Z" fill="#026ECE"/>
</g>
<g id="Group_3">
<path id="Vector_13" d="M34.2038 13.5211C34.6693 13.2096 34.9796 12.6904 35.0313 12.1192L34.3073 11.3923C34.359 11.5481 34.4107 11.7038 34.4107 11.9115C34.4107 12.2231 34.3073 12.4827 34.1004 12.6904C33.8936 12.8981 33.5316 13.0538 33.0144 13.0538H31.3596V12.275H33.0144C33.1696 12.275 33.273 12.275 33.3764 12.1711C33.4281 12.1192 33.4799 12.0154 33.4799 11.9115C33.4799 11.8077 33.4281 11.7038 33.3764 11.6519C33.3247 11.6 33.2213 11.5481 33.0661 11.5481C32.2387 11.4961 31.2562 11.5481 31.2562 10.4058C31.2562 9.88653 31.5665 9.41922 32.3422 9.31538L31.7733 8.74422C31.6699 8.79615 31.6182 8.84807 31.5665 8.84807V8.53653H29.1876C28.8256 8.53653 28.3602 8.64038 28.1533 8.84807V8.53653H23.9128V8.84807C23.6025 8.58845 23.0337 8.53653 22.7751 8.53653H19.9826V8.84807C19.724 8.58845 19.1034 8.53653 18.7932 8.53653H15.6903L14.9663 9.31538L14.2941 8.53653H13.7252L15.2766 10.0942L16.0523 9.26345H18.7932C19.4654 9.26345 20.2411 9.47115 20.2411 10.4577C20.2411 11.4961 19.5172 11.7038 18.7415 11.7038H17.7072V12.4827L18.4829 13.2615V12.4827H18.7415C19.1034 12.4827 19.5689 12.4827 19.9309 12.3269V13.7288H22.258V12.3788H22.3614C22.5166 12.3788 22.5166 12.3788 22.5166 12.5346V13.7288H29.5496C30.015 13.7288 30.4805 13.625 30.739 13.4173V13.7288H32.9627C33.3764 13.7808 33.8419 13.7288 34.2038 13.5211ZM23.9128 11.6519C24.0162 11.8077 24.068 12.0154 24.068 12.3269V13.0538H23.1888V12.5865C23.1888 12.3788 23.1888 12.0154 23.0337 11.8596C22.9303 11.7038 22.7234 11.7038 22.4131 11.7038H21.4823V13.0538H20.6031V9.3673H22.5683C22.982 9.3673 23.344 9.3673 23.6025 9.52307C23.8611 9.67884 24.068 9.93845 24.068 10.3538C24.068 10.925 23.706 11.2365 23.4474 11.3404C23.706 11.4442 23.8611 11.5481 23.9128 11.6519ZM27.4811 10.1461H25.4642V10.8211H27.4294V11.5481H25.4642V12.275H27.4811V13.0538H24.5851V9.3673H27.4811V10.1461ZM29.653 13.0538H27.9982V12.275H29.653C29.8082 12.275 29.9116 12.275 30.015 12.1711C30.0668 12.1192 30.1185 12.0154 30.1185 11.9115C30.1185 11.8077 30.0668 11.7038 30.015 11.6519C29.9633 11.6 29.8599 11.5481 29.7048 11.5481C28.8773 11.4961 27.8948 11.5481 27.8948 10.4058C27.8948 9.88653 28.2051 9.31538 29.1359 9.31538H30.8425V10.1981H29.2393C29.0842 10.1981 28.9808 10.1981 28.8773 10.25C28.7739 10.3019 28.7739 10.4058 28.7739 10.5096C28.7739 10.6654 28.8773 10.7173 28.9808 10.7692C29.0842 10.8211 29.1876 10.8211 29.291 10.8211H29.7565C30.2219 10.8211 30.5322 10.925 30.739 11.1327C30.8942 11.2885 30.9976 11.5481 30.9976 11.9115C30.9976 12.6904 30.5322 13.0538 29.653 13.0538Z" fill="#026ECE"/>
<path id="Vector_14" d="M32.1353 10.5096C32.1353 10.6654 32.187 10.7173 32.3421 10.7692C32.4455 10.8212 32.549 10.8212 32.6524 10.8212H33.1178C33.4281 10.8212 33.635 10.8731 33.8418 10.9769L33.0661 10.1981H32.6007C32.4455 10.1981 32.3421 10.1981 32.2387 10.25C32.187 10.3019 32.1353 10.4058 32.1353 10.5096Z" fill="#026ECE"/>
</g>
<g id="Group_4">
<path id="Vector_15" d="M30.3252 7.39424L30.4286 7.55001H30.4804L30.3252 7.39424ZM27.481 4.53847L28.3601 6.66731V5.42116L27.481 4.53847Z" fill="#026ECE"/>
<path id="Vector_16" d="M18.6379 6.25193H18.7413C18.8448 6.25193 18.8448 6.25193 18.8448 6.4077V7.55H22.5681V7.23846C22.8784 7.39423 23.3438 7.55 23.9644 7.55H25.5158L25.8261 6.71923H26.5501L26.8604 7.55H29.8598V7.03077L29.1358 6.30385V6.875H27.3775L27.119 6.04423H25.309L24.9987 6.875H24.0161C23.6024 6.875 23.0853 6.77116 22.775 6.45962C22.4647 6.14808 22.3096 5.7327 22.3096 5.0577C22.3096 4.53847 22.413 4.01923 22.775 3.60385C23.0336 3.29231 23.499 3.18847 24.0678 3.18847H24.8953V3.96731H24.0678C23.7576 3.96731 23.6024 4.01923 23.3956 4.175C23.2404 4.33077 23.137 4.64231 23.137 5.00577C23.137 5.42116 23.1887 5.68077 23.3956 5.88847C23.5507 6.04423 23.7576 6.09616 24.0161 6.09616H24.3781L25.5675 3.24039H26.0847L25.3607 2.51347H24.0161C23.4473 2.51347 22.9819 2.61731 22.5681 2.825V2.51347H20.2927V2.825C20.0342 2.61731 19.7239 2.51347 19.3102 2.51347H10.9843L10.4154 3.81154L9.84657 2.51347H7.57117L8.29516 3.24039H9.32943L10.2086 5.16154L10.5188 5.47308L11.4497 3.18847H12.8977V6.875H12.0185V4.01923L11.1394 6.09616L12.6391 7.60193H18.5862L18.6379 6.25193ZM21.0167 3.18847H21.8959V6.875H21.0167V3.18847ZM16.4659 3.96731H14.4491V4.64231H16.4142V5.36923H14.4491V6.09616H16.4659V6.875H13.57V3.18847H16.4659V3.96731ZM17.9139 6.82308H17.0348V3.13654H18.9999C19.4653 3.13654 19.7756 3.13654 20.0342 3.29231C20.2927 3.44808 20.4479 3.7077 20.4479 4.12308C20.4479 4.69423 20.0859 5.00577 19.8273 5.10962C20.0342 5.16154 20.1893 5.31731 20.241 5.42116C20.3445 5.62885 20.3962 5.78462 20.3962 6.09616V6.82308H19.517V6.35577C19.517 6.14808 19.517 5.83654 19.3619 5.62885C19.3102 5.525 19.155 5.525 18.8448 5.525H17.9139V6.82308Z" fill="#026ECE"/>
</g>
</g>
</svg>
