<svg width="48" height="12" viewBox="0 0 48 12" fill="none" xmlns="http://www.w3.org/2000/svg">
<g id="3pv">
<path id="XMLID_34_" d="M14.6734 1.5471C14.3309 1.95243 13.7828 2.27212 13.2348 2.22645C13.1663 1.6784 13.4346 1.0961 13.7486 0.736441C14.0911 0.319696 14.6905 0.0228354 15.1758 0C15.2329 0.570885 15.0102 1.13035 14.6734 1.5471ZM15.1701 2.33492C14.3765 2.28925 13.6972 2.78592 13.3204 2.78592C12.9379 2.78592 12.3613 2.35775 11.7333 2.36917C10.917 2.38059 10.1577 2.84301 9.74094 3.57945C8.88461 5.05233 9.5183 7.23311 10.3461 8.43197C10.7514 9.02569 11.2367 9.6765 11.8761 9.65366C12.4812 9.63083 12.721 9.25975 13.4517 9.25975C14.1881 9.25975 14.3994 9.65366 15.0388 9.64225C15.701 9.63083 16.1177 9.04853 16.5231 8.45481C16.9855 7.78116 17.1739 7.12464 17.1853 7.09039C17.1739 7.07897 15.9065 6.59372 15.8951 5.13226C15.8837 3.91056 16.8941 3.32826 16.9398 3.29401C16.3689 2.4491 15.4783 2.35775 15.1701 2.33492ZM19.7543 0.679353V9.57945H21.1358V6.53663H23.0483C24.7952 6.53663 26.0226 5.33777 26.0226 3.60228C26.0226 1.86679 24.818 0.679353 23.0939 0.679353H19.7543ZM21.1358 1.84396H22.7286C23.9274 1.84396 24.6125 2.48335 24.6125 3.60799C24.6125 4.73264 23.9274 5.37774 22.7229 5.37774H21.1358V1.84396ZM28.5459 9.64795C29.4136 9.64795 30.2186 9.20837 30.584 8.51189H30.6125V9.57945H31.8913V5.14938C31.8913 3.86489 30.8637 3.03711 29.2823 3.03711C27.8152 3.03711 26.7305 3.87631 26.6905 5.0295H27.935C28.0378 4.48145 28.5459 4.12179 29.2424 4.12179C30.0873 4.12179 30.5611 4.5157 30.5611 5.24072V5.73168L28.837 5.83444C27.2329 5.93149 26.3651 6.58801 26.3651 7.72978C26.3651 8.88297 27.2614 9.64795 28.5459 9.64795ZM28.917 8.59182C28.1805 8.59182 27.7124 8.23787 27.7124 7.69553C27.7124 7.13606 28.1634 6.81066 29.0254 6.75928L30.5611 6.66223V7.16461C30.5611 7.9981 29.8532 8.59182 28.917 8.59182ZM33.5982 12C34.9455 12 35.5792 11.4862 36.133 9.92769L38.5592 3.12274H37.1548L35.5278 8.38059H35.4993L33.8722 3.12274H32.4279L34.7685 9.60228L34.6429 9.99619C34.4317 10.6641 34.0892 10.921 33.4783 10.921C33.3699 10.921 33.1586 10.9096 33.073 10.8982V11.9657C33.1529 11.9886 33.4955 12 33.5982 12Z" fill="black"/>
</g>
</svg>
