<svg width="32" height="15" viewBox="0 0 32 15" fill="none" xmlns="http://www.w3.org/2000/svg">
<g id="Google_Pay_Logo 1" clip-path="url(#clip0_7265_5020)">
<path id="Vector" d="M15.12 7.7559V11.4173H13.92V2.3622H17.04C17.8 2.3622 18.52 2.63779 19.08 3.1496C19.64 3.62204 19.92 4.3307 19.92 5.07873C19.92 5.82676 19.64 6.49606 19.08 7.00787C18.52 7.51968 17.84 7.79527 17.04 7.79527L15.12 7.7559ZM15.12 3.46456V6.61417H17.12C17.56 6.61417 18 6.45669 18.28 6.14173C18.92 5.55117 18.92 4.56692 18.32 3.97637L18.28 3.937C17.96 3.62204 17.56 3.42519 17.12 3.46456H15.12Z" fill="#5F6368"/>
<path id="Vector_2" d="M22.68 5.03937C23.56 5.03937 24.24 5.27559 24.76 5.74803C25.28 6.22047 25.52 6.85039 25.52 7.63779V11.4173H24.4V10.5512H24.36C23.88 11.2598 23.2 11.6142 22.4 11.6142C21.72 11.6142 21.12 11.4173 20.64 11.0236C20.2 10.6299 19.92 10.0787 19.92 9.48819C19.92 8.85827 20.16 8.34645 20.64 7.95275C21.12 7.55905 21.8 7.40157 22.6 7.40157C23.32 7.40157 23.88 7.51968 24.32 7.79527V7.51968C24.32 7.12598 24.16 6.73228 23.84 6.49606C23.52 6.22047 23.12 6.06299 22.68 6.06299C22 6.06299 21.48 6.33858 21.12 6.88976L20.08 6.25984C20.72 5.43307 21.56 5.03937 22.68 5.03937ZM21.16 9.52756C21.16 9.84252 21.32 10.1181 21.56 10.2756C21.84 10.4724 22.16 10.5905 22.48 10.5905C22.96 10.5905 23.44 10.3937 23.8 10.0394C24.2 9.68504 24.4 9.25197 24.4 8.77953C24.04 8.50393 23.52 8.34645 22.84 8.34645C22.36 8.34645 21.96 8.46456 21.64 8.70079C21.32 8.89764 21.16 9.17323 21.16 9.52756Z" fill="#5F6368"/>
<path id="Vector_3" d="M32 5.23622L28.04 14.1732H26.84L28.32 11.063L25.72 5.27559H27L28.88 9.72441H28.92L30.76 5.27559H32V5.23622Z" fill="#5F6368"/>
<path id="Vector_4" d="M10.36 6.96851C10.36 6.61418 10.32 6.25985 10.28 5.90552H5.28003V7.91339H8.12003C8.00003 8.54331 7.64003 9.13386 7.08003 9.4882V10.7874H8.80003C9.80003 9.8819 10.36 8.54331 10.36 6.96851Z" fill="#4285F4"/>
<path id="Vector_5" d="M5.28006 12.0472C6.72006 12.0472 7.92006 11.5748 8.80006 10.7874L7.08006 9.48818C6.60006 9.80314 6.00006 9.99999 5.28006 9.99999C3.92006 9.99999 2.72006 9.09448 2.32006 7.83464H0.560059V9.17322C1.48006 10.9449 3.28006 12.0472 5.28006 12.0472Z" fill="#34A853"/>
<path id="Vector_6" d="M2.31999 7.83465C2.07999 7.20473 2.07999 6.49606 2.31999 5.82677V4.48819H0.55999C-0.20001 5.94488 -0.20001 7.67717 0.55999 9.17323L2.31999 7.83465Z" fill="#FBBC04"/>
<path id="Vector_7" d="M5.27998 3.70079C6.03998 3.70079 6.75997 3.97638 7.31997 4.48819L8.83998 2.99213C7.87998 2.12599 6.59998 1.61418 5.31998 1.65355C3.31998 1.65355 1.47998 2.75591 0.599976 4.52756L2.35998 5.86614C2.71998 4.6063 3.91998 3.70079 5.27998 3.70079Z" fill="#EA4335"/>
</g>
<defs>
<clipPath id="clip0_7265_5020">
<rect width="32" height="15" fill="white"/>
</clipPath>
</defs>
</svg>
