<svg width="30" height="18" viewBox="0 0 30 18" fill="none" xmlns="http://www.w3.org/2000/svg">
<g id="Group">
<path id="Vector" d="M11.375 1.925H19.25V16.075H11.375V1.925Z" fill="#FF5F00"/>
<path id="Vector_2" d="M11.875 9.00016C11.875 6.12517 13.225 3.57518 15.3 1.92518C13.775 0.725184 11.85 0.000183105 9.74998 0.000183105C4.77499 0.000183105 0.75 4.02517 0.75 9.00016C0.75 13.9751 4.77499 18.0001 9.74998 18.0001C11.85 18.0001 13.775 17.2751 15.3 16.0751C13.225 14.4502 11.875 11.8752 11.875 9.00016Z" fill="#EB001B"/>
<path id="Vector_3" d="M29.8749 8.99998C29.8749 13.975 25.8499 18 20.8749 18C18.7749 18 16.8499 17.275 15.325 16.075C17.4249 14.425 18.7499 11.875 18.7499 8.99998C18.7499 6.12499 17.3999 3.575 15.325 1.92501C16.8499 0.725009 18.7749 7.62939e-06 20.8749 7.62939e-06C25.8499 7.62939e-06 29.8749 4.05 29.8749 8.99998Z" fill="#F79E1B"/>
</g>
</svg>
