<svg width="44" height="12" viewBox="0 0 44 12" fill="none" xmlns="http://www.w3.org/2000/svg">
<g id="3pv" clip-path="url(#clip0_7186_1169)">
<path id="Vector" d="M17.5426 2.74967H15.2629C15.1069 2.74967 14.9742 2.863 14.9499 3.017L14.0279 8.86267C14.0096 8.978 14.0989 9.082 14.2159 9.082H15.3042C15.4602 9.082 15.5929 8.96867 15.6172 8.81433L15.8659 7.23767C15.8899 7.08333 16.0229 6.97 16.1786 6.97H16.9002C18.4019 6.97 19.2686 6.24333 19.4949 4.80333C19.5969 4.17333 19.4992 3.67833 19.2042 3.33167C18.8802 2.951 18.3056 2.74967 17.5426 2.74967ZM17.8056 4.88467C17.6809 5.70267 17.0559 5.70267 16.4516 5.70267H16.1076L16.3489 4.175C16.3632 4.08267 16.4432 4.01467 16.5366 4.01467H16.6942C17.1059 4.01467 17.4942 4.01467 17.6949 4.24933C17.8146 4.38933 17.8512 4.59733 17.8056 4.88467Z" fill="#253B80"/>
<path id="Vector_2" d="M24.3568 4.85833H23.2651C23.1721 4.85833 23.0918 4.92633 23.0775 5.01866L23.0291 5.32399L22.9528 5.21333C22.7165 4.87033 22.1895 4.75566 21.6635 4.75566C20.4571 4.75566 19.4268 5.66933 19.2261 6.95099C19.1218 7.59033 19.2701 8.20166 19.6328 8.62799C19.9655 9.01999 20.4415 9.18333 21.0078 9.18333C21.9798 9.18333 22.5188 8.55833 22.5188 8.55833L22.4701 8.86166C22.4518 8.97766 22.5411 9.08166 22.6575 9.08166H23.6408C23.7971 9.08166 23.9291 8.96833 23.9538 8.81399L24.5438 5.07766C24.5625 4.96266 24.4735 4.85833 24.3568 4.85833ZM22.8351 6.98299C22.7298 7.60666 22.2348 8.02533 21.6035 8.02533C21.2865 8.02533 21.0331 7.92366 20.8705 7.73099C20.7091 7.53966 20.6478 7.26733 20.6991 6.96399C20.7975 6.34566 21.3008 5.91333 21.9225 5.91333C22.2325 5.91333 22.4845 6.01633 22.6505 6.21066C22.8168 6.40699 22.8828 6.68099 22.8351 6.98299Z" fill="#253B80"/>
<path id="Vector_3" d="M30.1708 4.85835H29.0738C28.9691 4.85835 28.8708 4.91034 28.8115 4.99734L27.2985 7.22601L26.6571 5.08435C26.6168 4.95035 26.4931 4.85835 26.3531 4.85835H25.2751C25.1441 4.85835 25.0531 4.98635 25.0948 5.10968L26.3031 8.65568L25.1671 10.2593C25.0778 10.3857 25.1678 10.5593 25.3221 10.5593H26.4178C26.5218 10.5593 26.6191 10.5087 26.6781 10.4233L30.3268 5.15668C30.4141 5.03068 30.3245 4.85835 30.1708 4.85835Z" fill="#253B80"/>
<path id="Vector_4" d="M33.8028 2.74967H31.5228C31.3672 2.74967 31.2345 2.863 31.2102 3.017L30.2882 8.86267C30.2698 8.978 30.3592 9.082 30.4755 9.082H31.6455C31.7542 9.082 31.8472 9.00267 31.8642 8.89467L32.1258 7.23767C32.1498 7.08333 32.2828 6.97 32.4385 6.97H33.1598C34.6618 6.97 35.5282 6.24333 35.7548 4.80333C35.8572 4.17333 35.7588 3.67833 35.4638 3.33167C35.1402 2.951 34.5658 2.74967 33.8028 2.74967ZM34.0658 4.88467C33.9415 5.70267 33.3165 5.70267 32.7118 5.70267H32.3682L32.6098 4.175C32.6242 4.08267 32.7035 4.01467 32.7972 4.01467H32.9548C33.3662 4.01467 33.7548 4.01467 33.9555 4.24933C34.0752 4.38933 34.1115 4.59733 34.0658 4.88467Z" fill="#179BD7"/>
<path id="Vector_5" d="M40.6169 4.85833H39.5259C39.4322 4.85833 39.3525 4.92633 39.3385 5.01866L39.2902 5.32399L39.2135 5.21333C38.9772 4.87033 38.4505 4.75566 37.9245 4.75566C36.7182 4.75566 35.6882 5.66933 35.4875 6.95099C35.3835 7.59033 35.5312 8.20166 35.8939 8.62799C36.2272 9.01999 36.7025 9.18333 37.2689 9.18333C38.2409 9.18333 38.7799 8.55833 38.7799 8.55833L38.7312 8.86166C38.7129 8.97766 38.8022 9.08166 38.9192 9.08166H39.9022C40.0579 9.08166 40.1905 8.96833 40.2149 8.81399L40.8052 5.07766C40.8232 4.96266 40.7339 4.85833 40.6169 4.85833ZM39.0952 6.98299C38.9905 7.60666 38.4949 8.02533 37.8635 8.02533C37.5472 8.02533 37.2932 7.92366 37.1305 7.73099C36.9692 7.53966 36.9085 7.26733 36.9592 6.96399C37.0582 6.34566 37.5609 5.91333 38.1825 5.91333C38.4925 5.91333 38.7445 6.01633 38.9105 6.21066C39.0775 6.40699 39.1435 6.68099 39.0952 6.98299Z" fill="#179BD7"/>
<path id="Vector_6" d="M41.9039 2.91L40.9682 8.86267C40.9499 8.978 41.0392 9.082 41.1555 9.082H42.0962C42.2525 9.082 42.3852 8.96867 42.4092 8.81433L43.3319 2.969C43.3502 2.85367 43.2609 2.74933 43.1445 2.74933H42.0912C41.9982 2.74967 41.9182 2.81767 41.9039 2.91Z" fill="#179BD7"/>
<path id="Vector_7" d="M4.56089 10.218L4.73522 9.11066L4.34689 9.10166H2.49255L3.78122 0.930659C3.78522 0.905992 3.79822 0.882992 3.81722 0.866659C3.83622 0.850326 3.86055 0.841326 3.88589 0.841326H7.01255C8.05055 0.841326 8.76689 1.05733 9.14089 1.48366C9.31622 1.68366 9.42789 1.89266 9.48189 2.12266C9.53855 2.36399 9.53955 2.65233 9.48422 3.00399L9.48022 3.02966V3.25499L9.65555 3.35433C9.80322 3.43266 9.92055 3.52233 10.0106 3.62499C10.1606 3.79599 10.2576 4.01333 10.2986 4.27099C10.3409 4.53599 10.3269 4.85133 10.2576 5.20833C10.1776 5.61899 10.0482 5.97666 9.87355 6.26933C9.71289 6.53899 9.50822 6.76266 9.26522 6.93599C9.03322 7.10066 8.75755 7.22566 8.44589 7.30566C8.14389 7.38433 7.79955 7.42399 7.42189 7.42399H7.17855C7.00455 7.42399 6.83555 7.48666 6.70289 7.59899C6.56989 7.71366 6.48189 7.87033 6.45489 8.04166L6.43655 8.14133L6.12855 10.093L6.11455 10.1647C6.11089 10.1873 6.10455 10.1987 6.09522 10.2063C6.08689 10.2133 6.07489 10.218 6.06322 10.218H4.56089Z" fill="#253B80"/>
<path id="Vector_8" d="M9.82155 3.05567C9.81222 3.11534 9.80155 3.17634 9.78955 3.23901C9.37722 5.356 7.96655 6.08734 6.16488 6.08734H5.24755C5.02722 6.08734 4.84155 6.24734 4.80722 6.46467L4.33755 9.44334L4.20455 10.2877C4.18222 10.4303 4.29222 10.559 4.43622 10.559H6.06322C6.25588 10.559 6.41955 10.419 6.44988 10.229L6.46588 10.1463L6.77222 8.20234L6.79188 8.09567C6.82188 7.905 6.98588 7.765 7.17855 7.765H7.42188C8.99822 7.765 10.2322 7.125 10.5929 5.27301C10.7435 4.49934 10.6655 3.85334 10.2669 3.399C10.1462 3.262 9.99655 3.14834 9.82155 3.05567Z" fill="#179BD7"/>
<path id="Vector_9" d="M9.39013 2.88368C9.32713 2.86535 9.26213 2.84868 9.19546 2.83368C9.12846 2.81901 9.0598 2.80601 8.98913 2.79468C8.7418 2.75468 8.4708 2.73568 8.18046 2.73568H5.7298C5.66946 2.73568 5.61213 2.74935 5.5608 2.77401C5.4478 2.82835 5.3638 2.93535 5.34346 3.06635L4.82213 6.36835L4.80713 6.46468C4.84146 6.24735 5.02713 6.08735 5.24746 6.08735H6.1648C7.96646 6.08735 9.37713 5.35568 9.78946 3.23901C9.8018 3.17635 9.81213 3.11535 9.82146 3.05568C9.71713 3.00035 9.60413 2.95301 9.48246 2.91268C9.45246 2.90268 9.42146 2.89301 9.39013 2.88368Z" fill="#222D65"/>
<path id="Vector_10" d="M5.34358 3.06633C5.36391 2.93533 5.44791 2.82833 5.56091 2.77433C5.61258 2.74967 5.66958 2.736 5.72991 2.736H8.18058C8.47091 2.736 8.74191 2.755 8.98925 2.795C9.05991 2.80633 9.12858 2.81933 9.19558 2.834C9.26225 2.849 9.32725 2.86567 9.39024 2.884C9.42158 2.89333 9.45258 2.903 9.48291 2.91267C9.60458 2.953 9.71758 3.00067 9.82191 3.05567C9.94458 2.27333 9.82091 1.74067 9.39791 1.25833C8.93158 0.727333 8.08991 0.5 7.01291 0.5H3.88625C3.66625 0.5 3.47858 0.66 3.44458 0.877667L2.14225 9.13267C2.11658 9.296 2.24258 9.44333 2.40725 9.44333H4.33758L4.82225 6.36833L5.34358 3.06633Z" fill="#253B80"/>
</g>
<defs>
<clipPath id="clip0_7186_1169">
<rect width="42.7778" height="11" fill="white" transform="translate(0.611084 0.5)"/>
</clipPath>
</defs>
</svg>
