<svg width="42" height="18" viewBox="0 0 42 18" fill="none" xmlns="http://www.w3.org/2000/svg">
<g id="3PV Icon" clip-path="url(#clip0_7186_1262)">
<path id="path3789" d="M27.1384 2.25C24.18 2.25 21.5362 3.78341 21.5362 6.6165C21.5362 9.86552 26.225 10.0899 26.225 11.7221C26.225 12.4094 25.4374 13.0246 24.0922 13.0246C22.1832 13.0246 20.7563 12.165 20.7563 12.165L20.1458 15.0239C20.1458 15.0239 21.7895 15.75 23.9718 15.75C27.2063 15.75 29.7514 14.1413 29.7514 11.2598C29.7514 7.82659 25.043 7.60885 25.043 6.09389C25.043 5.55552 25.6896 4.96563 27.0309 4.96563C28.5444 4.96563 29.7791 5.59081 29.7791 5.59081L30.3766 2.82959C30.3766 2.82959 29.0331 2.25 27.1384 2.25ZM0.0716353 2.45839L0 2.87518C0 2.87518 1.24462 3.10297 2.36559 3.55734C3.80894 4.07838 3.91176 4.3817 4.15485 5.32381L6.80372 15.5351H10.3546L15.8249 2.45839H12.2822L8.76718 11.3493L7.33285 3.81295C7.20131 2.95042 6.53501 2.45839 5.71943 2.45839H0.0716353ZM17.2495 2.45839L14.4703 15.5351H17.8486L20.6179 2.45839H17.2495ZM36.0912 2.45839C35.2765 2.45839 34.8449 2.89453 34.5282 3.65666L29.5789 15.5351H33.1216L33.807 13.5554H38.123L38.5398 15.5351H41.6657L38.9387 2.45839H36.0912ZM36.5519 5.99132L37.602 10.8983H34.7887L36.5519 5.99132Z" fill="#1434CB"/>
</g>
<defs>
<clipPath id="clip0_7186_1262">
<rect width="42" height="18" fill="white"/>
</clipPath>
</defs>
</svg>
